<svg xmlns="http://www.w3.org/2000/svg" viewBox="0 0 24 24"><defs><linearGradient id="bg" x1="0" y1="0" x2="24" y2="24" gradientUnits="userSpaceOnUse"><stop offset="0" stop-color="#E7643A"/><stop offset="1" stop-color="#B53810"/></linearGradient><radialGradient id="gloss" cx="30%" cy="22%" r="75%"><stop offset="0" stop-color="#ffffff" stop-opacity="0.35"/><stop offset="45%" stop-color="#ffffff" stop-opacity="0.08"/><stop offset="100%" stop-color="#ffffff" stop-opacity="0"/></radialGradient><filter id="plastic" x="-30%" y="-30%" width="160%" height="160%"><feOffset in="SourceAlpha" dx="0" dy="1.3" result="off1"/><feGaussianBlur in="off1" stdDeviation="1.3" result="blur1"/><feComposite in="SourceGraphic" in2="blur1" operator="out" result="inv1"/><feFlood flood-color="#661F09" flood-opacity="0.75" result="col1"/><feComposite in="col1" in2="inv1" operator="in" result="shadow1"/><feOffset in="SourceAlpha" dx="0" dy="-1.1" result="off2"/><feGaussianBlur in="off2" stdDeviation="1.1" result="blur2"/><feComposite in="SourceGraphic" in2="blur2" operator="out" result="inv2"/><feFlood flood-color="#ffffff" flood-opacity="0.5" result="col2"/><feComposite in="col2" in2="inv2" operator="in" result="shadow2"/><feOffset in="SourceAlpha" dx="-1" dy="0" result="off3"/><feGaussianBlur in="off3" stdDeviation="1" result="blur3"/><feComposite in="SourceGraphic" in2="blur3" operator="out" result="inv3"/><feFlood flood-color="#661F09" flood-opacity="0.25" result="col3"/><feComposite in="col3" in2="inv3" operator="in" result="shadow3"/><feMerge><feMergeNode in="SourceGraphic"/><feMergeNode in="shadow3"/><feMergeNode in="shadow1"/><feMergeNode in="shadow2"/></feMerge></filter><filter id="lift" x="-40%" y="-40%" width="180%" height="180%"><feDropShadow dx="0" dy="0.6" stdDeviation="0.55" flood-color="#661F09" flood-opacity="0.55"/></filter></defs><rect width="24" height="24" rx="6" ry="6" fill="url(#bg)" filter="url(#plastic)"/><rect width="24" height="24" rx="6" ry="6" fill="url(#gloss)"/><g transform="translate(12,12) scale(0.7474) translate(-12.000,-12.500)" fill="white" filter="url(#lift)"><path d="M7 6V4.5A1.5 1.5 0 0 1 8.5 3h7A1.5 1.5 0 0 1 17 4.5V6h4v2h-1.1l-.9 12.1A2 2 0 0 1 17 22H7a2 2 0 0 1-2-1.9L4.1 8H3V6h4zm2-1.5V6h6v-1.5H9zM6.1 8 7 20h10l.9-12H6.1z" fill-rule="evenodd"/><rect x="10" y="10" width="1.6" height="8" fill="#9A300E"/><rect x="14" y="10" width="1.6" height="8" fill="#9A300E"/></g></svg>