<svg style="vertical-align: -0.466ex;" xmlns="http://www.w3.org/2000/svg" width="15.901ex" height="2.401ex" role="img" focusable="false" viewBox="0 -855.3 7028.3 1061.3"><g stroke="currentColor" fill="currentColor" stroke-width="0" transform="scale(1,-1)"><g data-mml-node="math" data-latex="\text{Ag}^+ + e^- \rightleftharpoons \text{Ag}"><g data-mml-node="msup" data-latex="\text{Ag}^+"><g data-mml-node="mtext" data-latex="\text{Ag}"><path data-c="41" d="M583 3L717 0L717 39L695 39C670 39 653 40 646 42C631 47 621 58 615 75L401 694C397 707 390 716 375 716C362 716 353 709 348 694L143 102C129 61 92 39 32 38L32 0L137 3L254 0L254 39C205 39 180 54 180 85C180 92 181 96 182 98L227 225L465 225L516 77C518 71 519 67 519 64C519 47 492 39 437 39L437 0C479 3 528 4 583 3M345 569L451 264L240 264Z"></path><path data-c="67" d="M431 453C393 453 358 438 326 408C296 431 262 442 223 442C137 442 59 378 59 294C59 252 74 218 104 192C85 168 75 141 75 110C75 72 88 43 113 24C71 10 28-26 28-77C28-120 56-154 111-178C153-197 199-206 249-206C300-206 347-197 389-178C444-154 471-120 471-75C471-22 449 17 405 42C359 67 308 70 234 70C190 70 166 70 161 71C133 75 113 102 113 133C113 148 117 162 126 174C154 155 186 145 223 145C309 145 386 209 386 293C386 332 373 364 347 389C372 412 399 423 428 423C423 418 420 410 420 400C420 378 431 367 453 367C474 367 485 378 485 401C485 432 461 453 431 453M223 411C277 411 304 372 304 294C304 215 277 175 223 175C168 175 141 214 141 293C141 372 168 411 223 411M164 4L222 4C274 4 316 1 348-6C391-15 412-39 412-77C412-109 392-134 352-153C321-168 287-175 250-175C214-175 180-168 148-153C107-134 87-109 87-77C87-35 123 4 164 4Z" transform="translate(750,0)"></path></g><g data-mml-node="mo" transform="translate(1283,443.1) scale(0.707)" data-latex="+"><path data-c="2B" d="M698 274L413 274L413 559C413 575 405 583 389 583C373 583 365 575 365 559L365 274L80 274C64 274 56 266 56 250C56 234 64 226 80 226L365 226L365-59C365-75 373-83 389-83C405-83 413-75 413-59L413 226L698 226C714 226 722 234 722 250C722 263 711 274 698 274Z"></path></g></g><g data-mml-node="mo" data-latex="+" transform="translate(2105.4,0)"><path data-c="2B" d="M698 274L413 274L413 559C413 575 405 583 389 583C373 583 365 575 365 559L365 274L80 274C64 274 56 266 56 250C56 234 64 226 80 226L365 226L365-59C365-75 373-83 389-83C405-83 413-75 413-59L413 226L698 226C714 226 722 234 722 250C722 263 711 274 698 274Z"></path></g><g data-mml-node="msup" data-latex="e^-" transform="translate(3105.6,0)"><g data-mml-node="mi" data-latex="e"><path data-c="1D452" d="M124 129C124 153 129 186 139 227L188 227C253 227 303 235 339 250C372 264 394 284 405 309C412 326 415 342 415 355C415 410 363 442 307 442C268 442 229 432 190 412C113 372 46 281 46 171C46 69 105-11 204-11C257-11 304 2 345 27C379 48 404 69 420 90C427 99 430 106 430 109C430 120 425 126 414 126C409 126 404 122 398 114C365 70 324 42 277 30C246 22 223 18 206 18C149 18 124 72 124 129M375 355C375 289 311 256 182 256L147 256C166 322 194 366 232 387C262 404 287 413 307 413C343 413 375 391 375 355Z"></path></g><g data-mml-node="mo" transform="translate(499,363) scale(0.707)" data-latex="-"><path data-c="2212" d="M698 270L80 270C64 270 56 263 56 250C56 237 64 230 80 230L698 230C714 230 722 237 722 250C722 262 710 270 698 270Z"></path></g></g><g data-mml-node="mo" data-latex="\rightleftharpoons" transform="translate(4482.5,0)"><path data-c="21CC" d="M938 322C950 322 956 328 956 339C956 346 953 351 946 354C864 394 782 491 753 583C750 594 743 600 730 600C714 600 706 592 706 576C706 549 724 511 759 463C792 420 822 389 849 370L80 370C64 370 56 362 56 346C56 330 64 322 80 322M938 178L80 178C68 178 62 172 62 161C62 154 65 149 72 146C111 127 150 95 191 49C225 10 250-34 265-83C268-94 275-100 288-100C304-100 312-92 312-76C312-73 311-71 310-69C283 18 236 85 169 130L938 130C954 130 962 138 962 154C962 167 951 178 938 178Z"></path></g><g data-mml-node="mtext" data-latex="\text{Ag}" transform="translate(5778.3,0)"><path data-c="41" d="M583 3L717 0L717 39L695 39C670 39 653 40 646 42C631 47 621 58 615 75L401 694C397 707 390 716 375 716C362 716 353 709 348 694L143 102C129 61 92 39 32 38L32 0L137 3L254 0L254 39C205 39 180 54 180 85C180 92 181 96 182 98L227 225L465 225L516 77C518 71 519 67 519 64C519 47 492 39 437 39L437 0C479 3 528 4 583 3M345 569L451 264L240 264Z"></path><path data-c="67" d="M431 453C393 453 358 438 326 408C296 431 262 442 223 442C137 442 59 378 59 294C59 252 74 218 104 192C85 168 75 141 75 110C75 72 88 43 113 24C71 10 28-26 28-77C28-120 56-154 111-178C153-197 199-206 249-206C300-206 347-197 389-178C444-154 471-120 471-75C471-22 449 17 405 42C359 67 308 70 234 70C190 70 166 70 161 71C133 75 113 102 113 133C113 148 117 162 126 174C154 155 186 145 223 145C309 145 386 209 386 293C386 332 373 364 347 389C372 412 399 423 428 423C423 418 420 410 420 400C420 378 431 367 453 367C474 367 485 378 485 401C485 432 461 453 431 453M223 411C277 411 304 372 304 294C304 215 277 175 223 175C168 175 141 214 141 293C141 372 168 411 223 411M164 4L222 4C274 4 316 1 348-6C391-15 412-39 412-77C412-109 392-134 352-153C321-168 287-175 250-175C214-175 180-168 148-153C107-134 87-109 87-77C87-35 123 4 164 4Z" transform="translate(750,0)"></path></g></g></g></svg>